<svg width="16" height="16" viewBox="0 0 16 16" fill="none" xmlns="http://www.w3.org/2000/svg">
<g id="ant-design:star-filled">
<path id="Vector" d="M13.6549 5.90061L9.92846 5.35904L8.26267 1.98195C8.21717 1.88949 8.14232 1.81464 8.04986 1.76914C7.81797 1.65466 7.53617 1.75006 7.42023 1.98195L5.75443 5.35904L2.02804 5.90061C1.92531 5.91528 1.83138 5.96372 1.75946 6.0371C1.67252 6.12646 1.62461 6.24668 1.62626 6.37135C1.62791 6.49601 1.67899 6.61492 1.76827 6.70195L4.46436 9.33053L3.8274 13.0422C3.81246 13.1286 3.82201 13.2174 3.85498 13.2986C3.88794 13.3798 3.94299 13.4501 4.01389 13.5016C4.08479 13.5531 4.1687 13.5837 4.2561 13.5899C4.3435 13.5961 4.4309 13.5778 4.50839 13.5368L7.84145 11.7845L11.1745 13.5368C11.2655 13.5853 11.3712 13.6014 11.4724 13.5838C11.7278 13.5398 11.8995 13.2976 11.8555 13.0422L11.2185 9.33053L13.9146 6.70195C13.988 6.63003 14.0364 6.5361 14.0511 6.43337C14.0907 6.17653 13.9117 5.93877 13.6549 5.90061Z" fill="#98C93E"/>
</g>
</svg>
