<svg width="18" height="18" viewBox="0 0 18 18" fill="none" xmlns="http://www.w3.org/2000/svg">
<g id="Github">
<path id="Vector" d="M9.23277 0.923828C4.64406 0.923828 0.923096 4.64414 0.923096 9.23351C0.923096 12.905 3.30407 16.0198 6.60578 17.1186C7.02105 17.1955 7.17355 16.9383 7.17355 16.7188C7.17355 16.5207 7.1658 15.8661 7.16228 15.1717C4.85045 15.6744 4.36265 14.1913 4.36265 14.1913C3.98465 13.2308 3.44002 12.9755 3.44002 12.9755C2.68611 12.4597 3.49684 12.4702 3.49684 12.4702C4.3313 12.5289 4.77068 13.3266 4.77068 13.3266C5.51181 14.597 6.71462 14.2297 7.1888 14.0174C7.26336 13.4803 7.47875 13.1137 7.71637 12.9062C5.87071 12.6961 3.93043 11.9835 3.93043 8.79953C3.93043 7.89234 4.25505 7.15102 4.78665 6.56911C4.70036 6.35977 4.41596 5.51463 4.86714 4.37003C4.86714 4.37003 5.56493 4.14668 7.15289 5.22182C7.81569 5.03764 8.52658 4.94536 9.23277 4.94223C9.93897 4.94536 10.6504 5.03764 11.3145 5.22182C12.9006 4.14668 13.5974 4.37003 13.5974 4.37003C14.0497 5.51463 13.7651 6.35977 13.6788 6.56911C14.2116 7.15102 14.534 7.89228 14.534 8.79953C14.534 11.9911 12.5901 12.6939 10.7397 12.8996C11.0378 13.1575 11.3033 13.6632 11.3033 14.4384C11.3033 15.5502 11.2937 16.4451 11.2937 16.7188C11.2937 16.94 11.4433 17.1991 11.8645 17.1175C15.1644 16.0175 17.5424 12.9038 17.5424 9.23351C17.5424 4.64414 13.8219 0.923828 9.23277 0.923828Z" fill="#5D5A88"/>
<path id="Vector_2" d="M4.03555 12.7601C4.0173 12.8013 3.95226 12.8137 3.89315 12.7854C3.83287 12.7583 3.79898 12.702 3.81853 12.6605C3.83645 12.618 3.90149 12.6062 3.96165 12.6347C4.02206 12.6618 4.05647 12.7186 4.03555 12.7601ZM4.44431 13.1247C4.40468 13.1615 4.32719 13.1444 4.2746 13.0864C4.22025 13.0284 4.21008 12.951 4.25029 12.9137C4.29115 12.877 4.3663 12.8941 4.42078 12.9521C4.47513 13.0107 4.48569 13.0877 4.44424 13.1248L4.44431 13.1247ZM4.72474 13.5914C4.67378 13.6268 4.59049 13.5936 4.53907 13.5197C4.48817 13.4458 4.48817 13.3572 4.54017 13.3217C4.59179 13.2862 4.67378 13.3181 4.72591 13.3914C4.77675 13.4666 4.77675 13.5552 4.72467 13.5914L4.72474 13.5914ZM5.19893 14.1318C5.15337 14.182 5.0564 14.1686 4.98536 14.1C4.91276 14.033 4.89249 13.938 4.93818 13.8877C4.98425 13.8374 5.08181 13.8515 5.15337 13.9195C5.22552 13.9864 5.24754 14.0822 5.19899 14.1318H5.19893ZM5.8118 14.3143C5.79179 14.3794 5.69834 14.409 5.60423 14.3813C5.51025 14.3528 5.44873 14.2766 5.46769 14.2108C5.48725 14.1453 5.58109 14.1145 5.67592 14.1441C5.76976 14.1724 5.83142 14.2481 5.81186 14.3143H5.8118ZM6.50939 14.3917C6.51174 14.4602 6.4319 14.5171 6.33311 14.5183C6.23372 14.5205 6.15336 14.465 6.15232 14.3976C6.15232 14.3284 6.23033 14.2721 6.32965 14.2705C6.42845 14.2685 6.50939 14.3236 6.50939 14.3917ZM7.19461 14.3654C7.20647 14.4323 7.13778 14.501 7.03969 14.5192C6.94324 14.5368 6.85395 14.4956 6.84164 14.4293C6.82965 14.3607 6.89964 14.2921 6.9959 14.2743C7.09418 14.2572 7.18209 14.2974 7.19461 14.3654Z" fill="#5D5A88"/>
</g>
</svg>
