<svg width="18" height="17" viewBox="0 0 18 17" fill="none" xmlns="http://www.w3.org/2000/svg">
<g id="Group 73">
<path id="LinkedIn" d="M0.923096 2.76242C0.923096 2.22949 1.11026 1.78982 1.48456 1.44343C1.85886 1.09702 2.34547 0.923828 2.94436 0.923828C3.53257 0.923828 4.00846 1.09435 4.37208 1.43544C4.74638 1.78717 4.93354 2.24547 4.93354 2.81038C4.93354 3.32199 4.75174 3.74832 4.38812 4.08941C4.01382 4.44114 3.52187 4.617 2.91228 4.617H2.89624C2.30803 4.617 1.83214 4.44114 1.46852 4.08941C1.1049 3.73768 0.923096 3.29534 0.923096 2.76242ZM1.13164 16.7517V6.07189H4.69292V16.7517H1.13164ZM6.66606 16.7517H10.2273V10.7883C10.2273 10.4152 10.2701 10.1274 10.3557 9.92494C10.5054 9.56255 10.7326 9.25611 11.0374 9.00565C11.3422 8.75517 11.7246 8.62993 12.1844 8.62993C13.3822 8.62993 13.9811 9.43465 13.9811 11.0441V16.7517H17.5424V10.6284C17.5424 9.05094 17.1681 7.85453 16.4195 7.03915C15.6708 6.22377 14.6816 5.81609 13.4517 5.81609C12.0721 5.81609 10.9973 6.40763 10.2273 7.59073V7.6227H10.2113L10.2273 7.59073V6.07189H6.66606C6.68744 6.41296 6.69814 7.47347 6.69814 9.25346C6.69814 11.0334 6.68744 13.5328 6.66606 16.7517Z" fill="#5D5A88"/>
</g>
</svg>
