<svg width="21" height="18" viewBox="0 0 21 18" fill="none" xmlns="http://www.w3.org/2000/svg">
<g id="Social Media Icon/Instagram">
<path id="Instagram" fill-rule="evenodd" clip-rule="evenodd" d="M1.03271 9.00039C1.03271 5.76476 1.03271 4.14695 1.91737 2.98169C2.31241 2.46134 2.82372 2.01571 3.42075 1.67141C4.75775 0.900391 6.61399 0.900391 10.3265 0.900391C14.039 0.900391 15.8952 0.900391 17.2322 1.67141C17.8293 2.01571 18.3406 2.46134 18.7356 2.98169C19.6203 4.14695 19.6203 5.76476 19.6203 9.00039C19.6203 12.236 19.6203 13.8538 18.7356 15.0191C18.3406 15.5394 17.8293 15.9851 17.2322 16.3294C15.8952 17.1004 14.039 17.1004 10.3265 17.1004C6.61399 17.1004 4.75775 17.1004 3.42075 16.3294C2.82372 15.9851 2.31241 15.5394 1.91737 15.0191C1.03271 13.8538 1.03271 12.236 1.03271 9.00039ZM15.1382 9.00065C15.1382 11.3166 12.984 13.1941 10.3267 13.1941C7.66938 13.1941 5.51519 11.3166 5.51519 9.00065C5.51519 6.68466 7.66938 4.80718 10.3267 4.80718C12.984 4.80718 15.1382 6.68466 15.1382 9.00065ZM10.3267 11.7754C12.085 11.7754 13.5103 10.5331 13.5103 9.00065C13.5103 7.46822 12.085 6.22595 10.3267 6.22595C8.56842 6.22595 7.14306 7.46822 7.14306 9.00065C7.14306 10.5331 8.56842 11.7754 10.3267 11.7754ZM15.3282 5.58184C15.9526 5.58184 16.4588 5.14069 16.4588 4.5965C16.4588 4.05231 15.9526 3.61116 15.3282 3.61116C14.7038 3.61116 14.1977 4.05231 14.1977 4.5965C14.1977 5.14069 14.7038 5.58184 15.3282 5.58184Z" fill="#5D5A88"/>
</g>
</svg>
