<svg width="102" height="102" viewBox="0 0 102 102" fill="none" xmlns="http://www.w3.org/2000/svg">
<g id="ion:logo-reddit">
<path id="Vector" d="M64.5469 51C63.1284 51 61.7418 51.4206 60.5624 52.2087C59.383 52.9967 58.4637 54.1168 57.9209 55.4273C57.3781 56.7378 57.2361 58.1798 57.5128 59.571C57.7895 60.9622 58.4726 62.2402 59.4756 63.2432C60.4786 64.2462 61.7565 64.9292 63.1477 65.2059C64.5389 65.4827 65.9809 65.3406 67.2914 64.7978C68.6019 64.255 69.722 63.3358 70.5101 62.1564C71.2981 60.9769 71.7188 59.5903 71.7188 58.1719C71.7188 56.2698 70.9631 54.4456 69.6182 53.1006C68.2732 51.7556 66.449 51 64.5469 51Z" fill="#3F2323" fill-opacity="0.15"/>
<path id="Vector_2" d="M40.1981 64.7984C43.8575 63.2826 45.5952 59.0873 44.0795 55.4278C42.5637 51.7684 38.3684 50.0307 34.709 51.5465C31.0495 53.0622 29.3118 57.2576 30.8276 60.917C32.3433 64.5764 36.5387 66.3141 40.1981 64.7984Z" fill="#3F2323" fill-opacity="0.15"/>
<path id="Vector_3" d="M98.8126 50.5557C98.8126 44.3421 93.8043 39.2879 87.6564 39.2879C85.0651 39.2877 82.5554 40.1941 80.5622 41.8499C73.5895 37.1145 64.4693 34.2158 54.7335 33.6281L59.1163 17.8898L72.3464 20.5195C72.7249 25.7948 77.1276 29.9804 82.4368 29.9804C88.015 29.9804 92.5532 25.3984 92.5532 19.7784C92.5532 14.1585 87.8556 9.5625 82.2775 9.5625C78.3867 9.5625 75.0438 11.7918 73.3425 15.294L55.4128 11.73L49.2171 33.5484L48.2947 33.5743C38.2083 34.0146 28.7035 36.9471 21.446 41.8479C19.4533 40.1859 16.9386 39.2795 14.3439 39.2879C8.18999 39.2879 3.18761 44.3421 3.18761 50.5557C3.17883 52.5335 3.69195 54.4785 4.67519 56.1946C5.65843 57.9106 7.07698 59.3369 8.78765 60.3294C8.66852 61.2102 8.60928 62.0981 8.61035 62.987C8.63226 70.9039 13.0908 78.3268 21.1611 83.905C29.1578 89.4034 39.7462 92.4375 51.0001 92.4375C62.254 92.4375 72.8664 89.4034 80.8491 83.893C88.9234 78.3149 93.3699 70.89 93.3699 62.9631C93.3681 62.0773 93.3122 61.1925 93.2026 60.3135C94.9143 59.3253 96.3345 57.9024 97.3197 56.189C98.3048 54.4755 98.8198 52.5322 98.8126 50.5557ZM82.4767 14.9414C83.4223 14.9414 84.3467 15.2218 85.133 15.7472C85.9193 16.2726 86.5321 17.0193 86.894 17.893C87.2559 18.7666 87.3505 19.728 87.1661 20.6554C86.9816 21.5829 86.5262 22.4348 85.8575 23.1035C85.1889 23.7722 84.3369 24.2276 83.4094 24.412C82.482 24.5965 81.5206 24.5018 80.647 24.14C79.7733 23.7781 79.0266 23.1652 78.5012 22.379C77.9758 21.5927 77.6954 20.6683 77.6954 19.7227C77.6954 18.4546 78.1992 17.2385 79.0958 16.3418C79.9925 15.4451 81.2086 14.9414 82.4767 14.9414ZM8.51074 50.5557C8.5049 48.9942 9.11869 47.4941 10.2174 46.3845C11.3162 45.2749 12.8102 44.6464 14.3718 44.637C15.3185 44.639 16.2503 44.8736 17.0851 45.3203C13.9972 48.191 11.7201 51.3785 10.2977 54.819C9.73376 54.2611 9.28556 53.5973 8.9789 52.8657C8.67223 52.134 8.51313 51.349 8.51074 50.5557ZM77.8588 79.4883C70.7387 84.3871 61.2041 87.0865 51.0101 87.0865C40.816 87.0865 31.2775 84.3911 24.1634 79.4883C17.5891 74.9481 13.9554 69.0771 13.9554 62.9531C13.959 61.0974 14.293 59.2571 14.9415 57.5184C16.0731 54.3827 18.1609 51.4462 21.1472 48.7946C22.0802 47.9705 23.0621 47.2034 24.0877 46.4977L24.1474 46.4558L24.1952 46.422C31.3113 41.5371 40.834 38.8516 51.0121 38.8516C61.1901 38.8516 70.7148 41.5431 77.8309 46.422L77.8767 46.4558L77.9444 46.5056C78.9686 47.2088 79.9498 47.9725 80.8829 48.7927C83.8712 51.4463 85.959 54.3807 87.0906 57.5204C87.5012 58.6599 87.7891 59.84 87.9492 61.0406C88.0291 61.6783 88.0691 62.3204 88.0687 62.9631C88.0667 69.0831 84.441 74.9541 77.8588 79.4883ZM91.7244 54.8011C90.304 51.3586 88.0269 48.1691 84.937 45.2944C85.7751 44.8523 86.7088 44.6225 87.6564 44.625C89.2177 44.6345 90.7115 45.263 91.81 46.3727C92.9084 47.4823 93.5217 48.9824 93.5154 50.5438C93.514 51.3373 93.3549 52.1226 93.0475 52.8541C92.74 53.5857 92.2903 54.2488 91.7244 54.8051V54.8011Z" fill="#3F2323" fill-opacity="0.15"/>
<path id="Vector_4" d="M64.3936 72.1618C64.3438 72.2116 59.3016 77.3554 51.0161 77.3953C42.6489 77.3554 37.8119 72.369 37.6067 72.1618C37.4522 72.0086 37.2435 71.9227 37.026 71.9227C36.8084 71.9227 36.5997 72.0086 36.4452 72.1618L33.7159 74.8453C33.6385 74.9221 33.5771 75.0135 33.5352 75.1142C33.4933 75.2149 33.4717 75.3229 33.4717 75.432C33.4717 75.5411 33.4933 75.649 33.5352 75.7497C33.5771 75.8504 33.6385 75.9418 33.7159 76.0187C34.3933 76.696 40.6288 82.8379 51.0041 82.8818C61.3516 82.8379 67.615 76.696 68.2923 76.0187C68.3698 75.9417 68.4313 75.8501 68.4732 75.7492C68.5152 75.6484 68.5368 75.5402 68.5368 75.431C68.5368 75.3218 68.5152 75.2136 68.4732 75.1127C68.4313 75.0119 68.3698 74.9203 68.2923 74.8433L65.5611 72.1598C65.407 72.0074 65.199 71.9219 64.9823 71.9219C64.7656 71.9219 64.5576 72.0074 64.4036 72.1598L64.3936 72.1618Z" fill="#3F2323" fill-opacity="0.15"/>
</g>
</svg>
