<svg width="102" height="102" viewBox="0 0 102 102" fill="none" xmlns="http://www.w3.org/2000/svg">
<g id="ion:logo-gitlab">
<path id="Vector" d="M98.4278 56.0994L93.4114 40.5444C93.3849 40.4013 93.3442 40.2611 93.2899 40.1261L83.2294 8.86066C82.9657 8.05691 82.454 7.35744 81.7678 6.86275C81.0816 6.36807 80.2562 6.10364 79.4103 6.10746C78.5666 6.10494 77.7444 6.37343 77.0647 6.87339C76.3851 7.37335 75.884 8.07836 75.6352 8.88457L66.0448 38.6777H35.7635L26.1652 8.88258C25.9175 8.07913 25.4192 7.37607 24.7431 6.87634C24.067 6.37661 23.2486 6.10647 22.4079 6.10547H22.386C21.5378 6.10836 20.7124 6.3798 20.0281 6.88086C19.3438 7.38193 18.8358 8.08686 18.5769 8.89453L8.50641 40.1878C8.50641 40.2157 8.48449 40.2396 8.47453 40.2675L3.36856 56.1014C2.99252 57.2612 2.99105 58.5099 3.36435 59.6706C3.73765 60.8312 4.46678 61.8449 5.4484 62.5681L49.5634 94.9232C49.9507 95.2065 50.4186 95.3581 50.8985 95.3555C51.3783 95.353 51.8447 95.1966 52.2289 94.9092L96.3519 62.5681C97.3337 61.8447 98.0627 60.8304 98.4353 59.6692C98.8079 58.5081 98.8053 57.259 98.4278 56.0994ZM32.4864 43.2478L44.7841 81.45L15.2659 43.2478M57.0301 81.458L68.8219 44.8336L69.3299 43.2398H86.5663L59.859 77.7824M79.4482 11.8151L88.0883 38.6757H70.7922M64.5785 43.2299L56.0121 69.8415L50.9002 85.6914L37.2417 43.2299M22.3661 11.8151L31.0241 38.6757H13.7459M8.10399 58.8845C7.8955 58.7307 7.74075 58.5151 7.66172 58.2683C7.58269 58.0216 7.58339 57.7562 7.66371 57.5099L11.4489 45.756L39.2618 81.7329M93.7003 58.8845L62.5385 81.7229L62.6421 81.5855L90.3455 45.748L94.1306 57.5019C94.212 57.7484 94.2136 58.0143 94.1353 58.2617C94.057 58.5092 93.9027 58.7257 93.6943 58.8805" fill="#3F2323" fill-opacity="0.15"/>
</g>
</svg>
