<svg width="102" height="102" viewBox="0 0 102 102" fill="none" xmlns="http://www.w3.org/2000/svg">
<g id="ion:logo-venmo">
<path id="Vector" d="M88.487 6.375H14.0011C9.93105 6.375 6.375 9.30352 6.375 13.3257V87.975C6.375 92.0211 9.93105 95.625 14.0011 95.625H88.4651C92.557 95.625 95.625 91.9992 95.625 87.977V13.3257C95.6489 9.30352 92.557 6.375 88.487 6.375ZM55.3828 77.0977H34.7278L26.4463 27.5798L44.5254 25.8626L48.9082 61.0984C52.9982 54.4345 58.0484 43.9656 58.0484 36.8196C58.0484 32.9109 57.379 30.2454 56.3331 28.054L72.7945 24.723C74.6991 27.8667 75.5557 31.098 75.5557 35.196C75.5537 48.2448 64.4154 65.1963 55.3828 77.0977Z" fill="#3F2323" fill-opacity="0.15"/>
</g>
</svg>
