<svg width="102" height="102" viewBox="0 0 102 102" fill="none" xmlns="http://www.w3.org/2000/svg">
<g id="ion:logo-xbox">
<path id="Vector" d="M25.261 49.466C33.17 37.7918 40.7801 30.9785 40.7801 30.9785C40.7801 30.9785 32.393 21.2367 22.2926 17.5512L21.6352 17.3918C13.1402 24.8197 7.77265 35.1887 6.61212 46.4133C5.45158 57.638 8.58412 68.8857 15.3797 77.8946C15.3797 77.018 15.4993 63.8895 25.261 49.466ZM95.6251 51C95.6297 44.6331 94.2701 38.3391 91.6378 32.5419C89.0055 26.7446 85.1616 21.5786 80.3649 17.3918L79.7274 17.5711C69.627 21.2567 61.22 30.9985 61.22 30.9985C61.22 30.9985 68.8301 37.8117 76.7391 49.486C86.5008 63.9094 86.6204 77.0379 86.6005 77.9145C92.4738 70.1728 95.6442 60.7175 95.6251 51ZM40.0829 16.1168C45.92 18.7266 50.9602 23.0098 50.9602 23.0098C50.9602 23.0098 56.0403 18.7465 61.8774 16.1168C69.2087 12.8297 74.8067 13.8656 76.2809 14.2242C68.8415 9.11179 60.0268 6.375 51.0001 6.375C41.9733 6.375 33.1586 9.11179 25.7192 14.2242C27.1536 13.8656 32.7317 12.8098 40.0829 16.1168ZM71.4598 58.3512C62.236 47.0156 50.9602 39.6446 50.9602 39.6446C50.9602 39.6446 39.7442 47.0156 30.5005 58.3512C22.5715 68.093 19.6231 75.2449 18.0294 79.827L17.7704 80.7832C21.9557 85.4526 27.0782 89.1874 32.8038 91.7443C38.5293 94.3012 44.7295 95.6227 51.0001 95.6227C57.2706 95.6227 63.4708 94.3012 69.1964 91.7443C74.9219 89.1874 80.0444 85.4526 84.2297 80.7832L83.9508 79.827C82.3571 75.2449 79.3887 68.093 71.4598 58.3512Z" fill="#3F2323" fill-opacity="0.15"/>
</g>
</svg>
