<svg width="102" height="102" viewBox="0 0 102 102" fill="none" xmlns="http://www.w3.org/2000/svg">
<g id="ion:logo-react">
<path id="Vector" d="M81.8112 36.003C80.7925 35.6551 79.7665 35.331 78.7332 35.0309C78.9046 34.3336 79.0626 33.6323 79.2074 32.9271C81.5382 21.5916 80.0142 12.4594 74.8126 9.45316C69.8321 6.56847 61.6642 9.57468 53.4245 16.7625C52.6143 17.4717 51.8208 18.2022 51.0438 18.9539C50.5259 18.4545 49.9946 17.9658 49.4501 17.4876C40.8139 9.80179 32.1579 6.56449 26.9623 9.58066C21.9818 12.4713 20.5016 21.0557 22.5994 31.7995C22.8092 32.862 23.045 33.9199 23.3066 34.9731C22.116 35.3106 20.9355 35.6826 19.7665 36.0887C9.65414 39.6248 3.1875 45.1691 3.1875 50.9185C3.1875 56.8592 10.1283 62.8159 20.6729 66.4277C21.5282 66.7186 22.3915 66.9889 23.2628 67.2386C22.9799 68.3661 22.7295 69.5063 22.5117 70.6591C20.5195 81.2177 22.0734 89.5989 27.0439 92.4716C32.1778 95.438 40.79 92.3899 49.1851 85.0387C49.8492 84.457 50.5132 83.8428 51.1773 83.196C52.0167 84.0075 52.88 84.795 53.7672 85.5587C61.8953 92.5672 69.9218 95.3981 74.8843 92.5174C80.0142 89.5411 81.6817 80.5364 79.5162 69.5814C79.3502 68.7446 79.1589 67.8907 78.9424 67.0194C79.548 66.8401 80.1411 66.6548 80.7214 66.4636C91.6785 62.8239 98.8165 56.9389 98.8165 50.9245C98.8125 45.1472 92.1387 39.5671 81.8112 36.003ZM56.112 19.8504C63.1703 13.6925 69.7684 11.2621 72.7766 12.9993C75.978 14.85 77.2232 22.3127 75.2111 32.1003C75.0782 32.7378 74.9348 33.3734 74.7807 34.0069C70.5685 33.0488 66.2971 32.3726 61.9949 31.9828C59.5316 28.4345 56.8314 25.0567 53.9126 21.8725C54.6271 21.1792 55.3589 20.5052 56.108 19.8504H56.112ZM31.4228 55.8313C32.2874 57.5047 33.1912 59.1576 34.1341 60.7898C35.0944 62.4553 36.0951 64.0962 37.1364 65.7125C34.1761 65.3907 31.2344 64.9166 28.3229 64.2921C29.1676 61.5588 30.2075 58.72 31.4228 55.8313ZM31.4228 46.203C30.2275 43.3761 29.2154 40.595 28.3847 37.9096C31.114 37.298 34.0226 36.7979 37.0547 36.4194C36.0387 38.0052 35.0612 39.6142 34.1222 41.2465C33.1832 42.8787 32.2814 44.5309 31.4168 46.203H31.4228ZM33.5943 51.0182C34.8533 48.3925 36.2093 45.8172 37.6623 43.2925C39.1139 40.769 40.6592 38.3034 42.2981 35.8955C45.143 35.6803 48.0595 35.5668 51.006 35.5668C53.9524 35.5668 56.8869 35.6803 59.7298 35.8975C61.3514 38.3 62.8874 40.7571 64.3377 43.2685C65.788 45.78 67.162 48.3433 68.4595 50.9584C67.1792 53.5934 65.8086 56.1793 64.3477 58.716C62.8987 61.2394 61.3713 63.7124 59.7656 66.1349C56.9268 66.3341 53.9883 66.4437 51 66.4437C48.0117 66.4437 45.129 66.35 42.342 66.1688C40.6911 63.7529 39.1332 61.2766 37.6683 58.7399C36.2034 56.2032 34.8434 53.6292 33.5883 51.0182H33.5943ZM67.8838 60.762C68.8467 59.0912 69.7711 57.3985 70.6569 55.6839C71.8713 58.4372 72.9431 61.2513 73.8683 64.1148C70.9226 64.7781 67.9442 65.2868 64.9453 65.6388C65.9573 64.0331 66.9368 62.4075 67.8838 60.762ZM70.6171 46.205C69.7352 44.525 68.8181 42.8648 67.8659 41.2246C66.9362 39.6069 65.9673 38.0092 64.9593 36.4314C68.0093 36.8178 70.9358 37.3318 73.6791 37.9594C72.7971 40.7574 71.7751 43.5095 70.6171 46.205ZM51.0458 24.799C53.0351 26.9727 54.9135 29.2453 56.6738 31.6083C52.9085 31.429 49.1406 31.429 45.3701 31.6083C47.2288 29.1499 49.1313 26.8689 51.0458 24.799ZM29.0182 13.1208C32.2177 11.2641 39.2919 13.9177 46.7487 20.5457C47.2248 20.97 47.7049 21.4143 48.183 21.8744C45.2493 25.0582 42.5299 28.4331 40.043 31.9768C35.7503 32.3636 31.4873 33.0291 27.281 33.969C27.038 32.9915 26.8188 32.0074 26.6236 31.0166C24.8207 21.8067 26.014 14.8639 29.0182 13.1208ZM24.3545 63.294C23.5576 63.0669 22.7707 62.8205 21.9937 62.5549C17.332 60.9612 13.4811 58.8813 10.8375 56.6162C8.47078 54.5862 7.27148 52.5601 7.27148 50.9185C7.27148 47.4302 12.4631 42.9797 21.1212 39.9615C22.2089 39.583 23.3059 39.237 24.4123 38.9236C25.6981 43.056 27.2554 47.0989 29.074 51.0261C27.2337 55.0076 25.6572 59.1057 24.3545 63.294ZM46.4937 81.9548C42.7822 85.2061 39.0648 87.5111 35.7877 88.6725C32.8432 89.7144 30.4984 89.7443 29.082 88.9255C26.0658 87.1823 24.8107 80.4507 26.522 71.4221C26.7252 70.3596 26.9576 69.2971 27.2193 68.2346C31.4677 69.1498 35.7734 69.7748 40.1067 70.1053C42.618 73.6675 45.3598 77.0615 48.3145 80.2655C47.7209 80.8492 47.1132 81.411 46.4937 81.9548ZM51.1594 77.329C49.223 75.2352 47.2905 72.9183 45.4059 70.428C47.2374 70.4998 49.1021 70.5356 51 70.5356C52.9484 70.5356 54.8768 70.4938 56.7773 70.4081C55.0235 72.809 53.1484 75.1189 51.1594 77.329ZM75.9661 83.0246C75.3963 86.1006 74.2508 88.1525 72.8344 88.9733C69.8202 90.7225 63.3755 88.4494 56.4267 82.4549C55.6298 81.7696 54.833 81.0345 54.0222 80.2635C56.9194 77.047 59.5969 73.6393 62.0367 70.0635C66.394 69.6943 70.7206 69.0253 74.9859 68.0613C75.1812 68.8502 75.3538 69.6232 75.5039 70.3802C76.4622 75.2212 76.5996 79.6001 75.9661 83.0246ZM79.4325 62.5768C78.9105 62.7501 78.3727 62.9175 77.8268 63.0809C76.4893 58.929 74.8713 54.8729 72.9838 50.9405C74.8005 47.0605 76.3552 43.0632 77.6375 38.9754C78.6157 39.2603 79.566 39.5591 80.4804 39.8759C89.3297 42.9279 94.7285 47.4462 94.7285 50.9185C94.7285 54.624 88.8974 59.4332 79.4325 62.5768Z" fill="#3F2323" fill-opacity="0.15"/>
<path id="Vector_2" d="M51 59.4765C52.6954 59.482 54.3544 58.9843 55.7668 58.0464C57.1792 57.1085 58.2815 55.7725 58.9341 54.2077C59.5868 52.6429 59.7604 50.9196 59.433 49.2561C59.1057 47.5925 58.292 46.0635 57.0951 44.8627C55.8982 43.6619 54.3718 42.8432 52.7094 42.5104C51.0469 42.1776 49.323 42.3456 47.7561 42.9932C46.1892 43.6407 44.8496 44.7387 43.9071 46.148C42.9646 47.5573 42.4615 49.2147 42.4614 50.9101C42.4591 52.0334 42.6781 53.1461 43.1061 54.1847C43.534 55.2232 44.1624 56.1673 44.9554 56.9629C45.7483 57.7584 46.6903 58.3899 47.7275 58.8212C48.7647 59.2525 49.8767 59.4752 51 59.4765Z" fill="#3F2323" fill-opacity="0.15"/>
</g>
</svg>
