<svg width="74" height="102" viewBox="0 0 74 102" fill="none" xmlns="http://www.w3.org/2000/svg">
<g id="ion:logo-ionic">
<path id="Vector" d="M22.9999 30.6602C18.977 30.6602 15.0444 31.8531 11.6995 34.0881C8.35455 36.3231 5.74749 39.4998 4.20799 43.2165C2.66848 46.9332 2.26568 51.023 3.05051 54.9686C3.83534 58.9142 5.77256 62.5385 8.61719 65.3831C11.4618 68.2277 15.0861 70.165 19.0317 70.9498C22.9774 71.7346 27.0671 71.3318 30.7838 69.7923C34.5005 68.2528 37.6772 65.6458 39.9122 62.3008C42.1472 58.9559 43.3401 55.0233 43.3401 51.0004C43.3333 45.6079 41.1881 40.4383 37.3751 36.6252C33.562 32.8122 28.3924 30.667 22.9999 30.6602Z" fill="#3F2323" fill-opacity="0.15"/>
<path id="Vector_2" d="M52.2034 32.467C57.3218 32.467 61.4711 28.3177 61.4711 23.1993C61.4711 18.0809 57.3218 13.9316 52.2034 13.9316C47.0851 13.9316 42.9358 18.0809 42.9358 23.1993C42.9358 28.3177 47.0851 32.467 52.2034 32.467Z" fill="#3F2323" fill-opacity="0.15"/>
<path id="Vector_3" d="M63.6127 32.5126L63.2243 31.6599L62.6047 32.3612C61.0867 34.0849 59.1665 35.4071 57.0146 36.2101L56.417 36.4292L56.66 37.0129C58.5122 41.4432 59.4631 46.1982 59.457 51.0001C59.457 71.1052 43.1012 87.4571 23 87.4571C2.89883 87.4571 -13.457 71.1052 -13.457 51.0001C-13.457 30.8949 2.89484 14.5431 23 14.5431C28.4068 14.5318 33.7468 15.7369 38.6247 18.0692L39.1965 18.3282L39.4455 17.7465C40.3537 15.6376 41.7673 13.7847 43.5614 12.3517L44.2925 11.7679L43.4618 11.3556C37.1428 8.06917 30.1225 6.36041 23 6.37509C-1.60551 6.37509 -21.625 26.3946 -21.625 51.0001C-21.625 75.6056 -1.60551 95.6251 23 95.6251C47.6055 95.6251 67.625 75.6056 67.625 51.0001C67.6355 44.6205 66.2668 38.314 63.6127 32.5126Z" fill="#3F2323" fill-opacity="0.15"/>
</g>
</svg>
