<svg width="102" height="102" viewBox="0 0 102 102" fill="none" xmlns="http://www.w3.org/2000/svg">
<g id="ion:logo-slack">
<path id="Vector" d="M25.1255 62.7738C25.1239 64.6277 24.5727 66.4396 23.5416 67.9803C22.5105 69.521 21.0457 70.7214 19.3325 71.4297C17.6192 72.1381 15.7344 72.3226 13.9163 71.96C12.0982 71.5973 10.4285 70.7038 9.11813 69.3923C7.80778 68.0809 6.91566 66.4104 6.55456 64.5919C6.19346 62.7736 6.37959 60.8889 7.08941 59.1763C7.79924 57.4636 9.00089 55.9999 10.5425 54.9701C12.084 53.9403 13.8963 53.3906 15.7502 53.3906H25.1255V62.7738ZM29.8509 62.7738C29.8509 60.2874 30.8387 57.9027 32.5969 56.1445C34.3551 54.3863 36.7397 53.3986 39.2262 53.3986C41.7126 53.3986 44.0973 54.3863 45.8555 56.1445C47.6137 57.9027 48.6014 60.2874 48.6014 62.7738V86.2498C48.6014 88.7362 47.6137 91.1209 45.8555 92.8791C44.0973 94.6373 41.7126 95.625 39.2262 95.625C36.7397 95.625 34.3551 94.6373 32.5969 92.8791C30.8387 91.1209 29.8509 88.7362 29.8509 86.2498V62.7738ZM39.2262 25.1255C37.3723 25.1239 35.5604 24.5727 34.0197 23.5416C32.479 22.5105 31.2786 21.0457 30.5703 19.3325C29.8619 17.6192 29.6774 15.7344 30.04 13.9163C30.4027 12.0982 31.2962 10.4285 32.6077 9.11813C33.9191 7.80778 35.5897 6.91566 37.4081 6.55456C39.2265 6.19346 41.1111 6.37959 42.8237 7.08941C44.5364 7.79924 46.0001 9.00089 47.0299 10.5425C48.0597 12.084 48.6094 13.8963 48.6094 15.7502V25.1255H39.2262ZM39.2262 29.8509C41.7126 29.8509 44.0973 30.8387 45.8555 32.5969C47.6137 34.3551 48.6014 36.7397 48.6014 39.2262C48.6014 41.7126 47.6137 44.0973 45.8555 45.8555C44.0973 47.6137 41.7126 48.6014 39.2262 48.6014H15.7502C13.2638 48.6014 10.8791 47.6137 9.12094 45.8555C7.36275 44.0973 6.375 41.7126 6.375 39.2262C6.375 36.7397 7.36275 34.3551 9.12094 32.5969C10.8791 30.8387 13.2638 29.8509 15.7502 29.8509H39.2262ZM76.8745 39.2262C76.8761 37.3723 77.4273 35.5604 78.4584 34.0197C79.4895 32.479 80.9543 31.2786 82.6675 30.5703C84.3808 29.8619 86.2656 29.6774 88.0837 30.04C89.9018 30.4027 91.5715 31.2962 92.8819 32.6077C94.1922 33.9191 95.0843 35.5897 95.4454 37.4081C95.8065 39.2265 95.6204 41.1111 94.9106 42.8237C94.2008 44.5364 92.9991 46.0001 91.4575 47.0299C89.916 48.0597 88.1037 48.6094 86.2498 48.6094H76.8745V39.2262ZM72.1491 39.2262C72.1491 41.7126 71.1613 44.0973 69.4031 45.8555C67.6449 47.6137 65.2603 48.6014 62.7738 48.6014C60.2874 48.6014 57.9027 47.6137 56.1445 45.8555C54.3863 44.0973 53.3986 41.7126 53.3986 39.2262V15.7502C53.3986 13.2638 54.3863 10.8791 56.1445 9.12094C57.9027 7.36275 60.2874 6.375 62.7738 6.375C65.2603 6.375 67.6449 7.36275 69.4031 9.12094C71.1613 10.8791 72.1491 13.2638 72.1491 15.7502V39.2262ZM62.7738 76.8745C64.6277 76.8761 66.4396 77.4273 67.9803 78.4584C69.521 79.4895 70.7214 80.9543 71.4297 82.6675C72.1381 84.3808 72.3226 86.2656 71.96 88.0837C71.5973 89.9018 70.7038 91.5715 69.3923 92.8819C68.0809 94.1922 66.4104 95.0843 64.5919 95.4454C62.7736 95.8065 60.8889 95.6204 59.1763 94.9106C57.4636 94.2008 55.9999 92.9991 54.9701 91.4575C53.9403 89.916 53.3906 88.1037 53.3906 86.2498V76.8745H62.7738ZM62.7738 72.1491C60.2874 72.1491 57.9027 71.1613 56.1445 69.4031C54.3863 67.6449 53.3986 65.2603 53.3986 62.7738C53.3986 60.2874 54.3863 57.9027 56.1445 56.1445C57.9027 54.3863 60.2874 53.3986 62.7738 53.3986H86.2498C88.7362 53.3986 91.1209 54.3863 92.8791 56.1445C94.6373 57.9027 95.625 60.2874 95.625 62.7738C95.625 65.2603 94.6373 67.6449 92.8791 69.4031C91.1209 71.1613 88.7362 72.1491 86.2498 72.1491H62.7738Z" fill="#3F2323" fill-opacity="0.15"/>
</g>
</svg>
