<svg width="102" height="102" viewBox="0 0 102 102" fill="none" xmlns="http://www.w3.org/2000/svg">
<g id="ion:logo-skype">
<path id="Vector" d="M93.0669 60.4829C93.7233 57.5299 94.0507 54.5133 94.0431 51.4882C94.0431 28.3151 74.9799 9.51281 51.4521 9.51281C49.0146 9.51105 46.5812 9.71095 44.1766 10.1105C40.2446 7.65575 35.6994 6.36098 31.0641 6.37511C17.4415 6.37511 6.37489 17.2764 6.37489 30.7097C6.36039 35.0487 7.53145 39.3093 9.76161 43.0314C9.19126 45.8075 8.90292 48.6342 8.90098 51.4683C8.90098 74.6653 27.9642 93.4437 51.4681 93.4437C54.0798 93.4503 56.6865 93.2169 59.2555 92.7464C62.8565 94.6427 66.866 95.6309 70.9357 95.6251C84.5822 95.6251 95.6249 84.7239 95.6249 71.2905C95.6477 67.5354 94.7706 63.8294 93.0669 60.4829ZM73.3124 71.5196C71.3361 74.2609 68.4295 76.4463 64.6643 77.9803C60.8991 79.5143 56.4505 80.2853 51.3366 80.2853C45.2225 80.2853 40.1086 79.2155 36.0864 77.1237C33.2981 75.6563 30.8934 73.5545 29.0659 70.9877C27.251 68.4318 26.3446 65.8758 26.3446 63.4174C26.3446 61.8834 26.9422 60.5586 28.1116 59.443C29.2751 58.3732 30.7852 57.8154 32.5522 57.8154C34.0165 57.8154 35.2716 58.2337 36.2956 59.0944C37.2717 59.9072 38.1084 61.1164 38.7818 62.6962C39.4345 64.2093 40.2587 65.6424 41.2382 66.9675C42.0775 68.0592 43.2636 68.9657 44.7962 69.6868C46.3541 70.408 48.422 70.7785 50.972 70.7785C54.4822 70.7785 57.3649 70.0355 59.5265 68.5712C61.6661 67.1528 62.69 65.4335 62.69 63.3417C62.69 61.6922 62.1542 60.3893 61.0385 59.3673C59.8771 58.2975 58.365 57.4608 56.4824 56.903C54.552 56.3053 51.9263 55.6718 48.671 54.9984C44.2543 54.0681 40.5031 52.9525 37.5148 51.6974C34.4707 50.4184 32.0064 48.6294 30.1915 46.4221C28.3547 44.1669 27.4482 41.332 27.4482 38.0071C27.417 34.934 28.4338 31.9421 30.3309 29.5243C32.2375 27.0839 35.0046 25.1774 38.6085 23.8765C42.1426 22.5756 46.3501 21.9241 51.0915 21.9241C54.9046 21.9241 58.2295 22.3664 61.0186 23.2031C63.8077 24.0398 66.1804 25.2252 68.063 26.6655C69.9456 28.1059 71.3182 29.6399 72.2008 31.2476C73.0833 32.8553 73.5275 34.4789 73.5275 36.0288C73.5275 37.515 72.9458 38.8876 71.7824 40.073C71.2181 40.6601 70.5386 41.1242 69.7864 41.4362C69.0343 41.7482 68.2257 41.9013 67.4115 41.8859C65.8317 41.8859 64.5986 41.5133 63.7399 40.7702C62.9431 40.073 62.1123 39.0032 61.2059 37.4453C60.1361 35.471 58.8571 33.8892 57.3928 32.7736C55.9505 31.7058 53.5798 31.148 50.2787 31.148C47.2327 31.148 44.7464 31.7456 42.9076 32.9409C41.1406 34.0805 40.2799 35.4053 40.2799 36.9612C40.258 37.8526 40.5643 38.7211 41.1406 39.4016C41.8417 40.2083 42.7052 40.858 43.6746 41.3081C44.7663 41.8569 45.9111 42.2927 47.0912 42.609C48.2865 42.9357 50.2528 43.4238 52.9741 44.0275C56.4366 44.7486 59.5982 45.5854 62.3892 46.444C65.2261 47.3504 67.6665 48.4362 69.6647 49.7211C71.6492 50.9741 73.3007 52.6891 74.4778 54.7195C75.6174 56.7117 76.1991 59.2278 76.1991 62.1105C76.3256 65.4827 75.3083 68.7986 73.3124 71.5196Z" fill="#3F2323" fill-opacity="0.15"/>
</g>
</svg>
