<svg width="26" height="26" viewBox="0 0 26 26" fill="none" xmlns="http://www.w3.org/2000/svg">
<g id="jam:instagram">
<g id="Group">
<path id="Vector" d="M17.3516 2.16602H8.60909C6.90084 2.16802 5.26314 2.84759 4.05533 4.0556C2.84751 5.26362 2.16822 6.90143 2.1665 8.60968L2.1665 17.3522C2.16851 19.0604 2.84807 20.6981 4.05609 21.9059C5.26411 23.1138 6.90192 23.793 8.61017 23.7948H17.3527C19.0609 23.7928 20.6986 23.1132 21.9064 21.9052C23.1142 20.6972 23.7935 19.0594 23.7953 17.3511V8.6086C23.7932 6.90035 23.1137 5.26265 21.9057 4.05484C20.6976 2.84702 19.0598 2.16774 17.3516 2.16602ZM21.6199 17.3511C21.6199 17.9116 21.5095 18.4667 21.295 18.9845C21.0805 19.5024 20.7661 19.9729 20.3698 20.3693C19.9734 20.7656 19.5029 21.08 18.985 21.2945C18.4671 21.509 17.9121 21.6194 17.3516 21.6194H8.60909C7.47724 21.6191 6.39185 21.1693 5.59162 20.3689C4.79139 19.5684 4.34184 18.4829 4.34184 17.3511V8.6086C4.34212 7.47675 4.79195 6.39137 5.59239 5.59113C6.39282 4.7909 7.47833 4.34135 8.61017 4.34135H17.3527C18.4845 4.34164 19.5699 4.79146 20.3701 5.5919C21.1704 6.39233 21.6199 7.47784 21.6199 8.60968V17.3511Z" fill="black"/>
<path id="Vector_2" d="M12.9804 7.38672C11.4977 7.38901 10.0765 7.97907 9.02824 9.02754C7.97997 10.076 7.39019 11.4974 7.38818 12.98C7.3899 14.463 7.97971 15.8847 9.02824 16.9335C10.0768 17.9822 11.4984 18.5723 12.9814 18.5743C14.4646 18.5726 15.8866 17.9826 16.9353 16.9339C17.9841 15.8851 18.574 14.4632 18.5758 12.98C18.5735 11.497 17.9831 10.0754 16.9342 9.0271C15.8852 7.97876 14.4633 7.38923 12.9804 7.3878V7.38672ZM12.9804 16.399C12.0739 16.399 11.2045 16.0389 10.5635 15.3979C9.92253 14.7569 9.56243 13.8875 9.56243 12.9811C9.56243 12.0746 9.92253 11.2052 10.5635 10.5642C11.2045 9.92324 12.0739 9.56314 12.9804 9.56314C13.8868 9.56314 14.7562 9.92324 15.3972 10.5642C16.0382 11.2052 16.3983 12.0746 16.3983 12.9811C16.3983 13.8875 16.0382 14.7569 15.3972 15.3979C14.7562 16.0389 13.8868 16.399 12.9804 16.399Z" fill="black"/>
<path id="Vector_3" d="M18.5857 8.76806C19.3258 8.76806 19.9258 8.16808 19.9258 7.42797C19.9258 6.68787 19.3258 6.08789 18.5857 6.08789C17.8456 6.08789 17.2456 6.68787 17.2456 7.42797C17.2456 8.16808 17.8456 8.76806 18.5857 8.76806Z" fill="black"/>
</g>
</g>
</svg>
