<svg width="32" height="32" viewBox="0 0 32 32" fill="none" xmlns="http://www.w3.org/2000/svg">
<g id="la:facebook-square">
<path id="Vector" d="M7 5C5.906 5 5 5.906 5 7V25C5 26.094 5.906 27 7 27H25C26.094 27 27 26.094 27 25V7C27 5.906 26.094 5 25 5H7ZM7 7H25V25H19.812V18.25H22.406L22.781 15.25H19.813V13.312C19.813 12.438 20.027 11.844 21.281 11.844H22.906V9.125C22.629 9.09 21.668 9.031 20.563 9.031C18.258 9.031 16.688 10.418 16.688 13V15.25H14.063V18.25H16.687V25H7V7Z" fill="black"/>
</g>
</svg>
