<svg width="226" height="52" viewBox="0 0 226 52" fill="none" xmlns="http://www.w3.org/2000/svg">
<g id="Frame" clip-path="url(#clip0_456_5692)">
<g id="Group">
<path id="Vector" d="M34.6201 33.3299V10.2287C34.6201 9.75433 34.0457 9.52458 33.7159 9.8618L14.9202 29.2722C14.7608 29.439 14.5125 29.4797 14.3087 29.376L4.68853 24.566C4.34019 24.3918 3.92885 24.6438 3.92885 25.0366V33.3336C3.92885 33.6227 3.69168 33.8598 3.40263 33.8598H0.526952C0.237902 33.8561 0.000732422 33.6227 0.000732422 33.3299V18.685C0.000732422 18.2922 0.412073 18.0403 0.760416 18.2144L13.4897 24.5771C13.6936 24.6808 13.9418 24.6364 14.1012 24.4733L37.6403 0.167714C37.9701 -0.173209 38.5445 0.060249 38.5445 0.534577V33.3336C38.5445 33.6227 38.3073 33.8598 38.0182 33.8598H35.1426C34.8535 33.8561 34.6201 33.6227 34.6201 33.3299Z" fill="#F15958"/>
<path id="Vector_2" d="M0.00292969 50.615V38.0379C0.00292969 37.7489 0.240099 37.5117 0.529149 37.5117H3.40112C3.69017 37.5117 3.92734 37.7489 3.92734 38.0379V46.6944C3.92734 46.9835 4.16451 47.2206 4.45356 47.2206H34.096C34.3851 47.2206 34.6222 46.9835 34.6222 46.6944V38.0379C34.6222 37.7489 34.8594 37.5117 35.1485 37.5117H38.0241C38.3132 37.5117 38.5504 37.7489 38.5504 38.0379V50.615C38.5504 50.9041 38.3132 51.1412 38.0241 51.1412H0.529149C0.240099 51.1412 0.00292969 50.9041 0.00292969 50.615Z" fill="#4663A9"/>
</g>
<g id="Group_2">
<path id="Vector_3" d="M91.0206 14.7891L83.7092 34.0994L76.3643 14.7891H74.1038L68.9194 41.5812H71.9619L75.8085 21.7187L82.716 40.01H84.669L91.595 21.7187L95.4231 41.5812H98.4841L93.2775 14.7891H91.0206Z" fill="#4663A9"/>
<path id="Vector_4" d="M116.412 25.864C115.712 24.7041 114.782 23.7591 113.629 23.0328C112.473 22.3065 111.124 21.9434 109.582 21.9434C108.204 21.9434 106.914 22.2028 105.706 22.7178C104.502 23.2329 103.446 23.9518 102.538 24.8709C101.63 25.7899 100.922 26.8497 100.403 28.0577C99.8881 29.2621 99.6287 30.5554 99.6287 31.9339C99.6287 33.3384 99.8881 34.6539 100.414 35.8842C100.937 37.1145 101.663 38.1965 102.597 39.1266C103.527 40.0568 104.609 40.7868 105.84 41.3167C107.07 41.8466 108.389 42.1097 109.79 42.1097C111.283 42.1097 112.566 41.754 113.648 41.0462C114.726 40.3384 115.571 39.4046 116.182 38.241L116.297 41.6095H119.303V22.477H116.297L116.412 25.864ZM115.293 35.6433C114.778 36.7291 114.044 37.5925 113.103 38.2373C112.158 38.8821 111.031 39.2045 109.716 39.2045C108.467 39.2045 107.303 38.8858 106.232 38.2484C105.161 37.611 104.302 36.7513 103.657 35.6655C103.012 34.5798 102.69 33.3754 102.69 32.0488C102.69 30.7221 103.005 29.5178 103.638 28.432C104.268 27.3463 105.117 26.4828 106.184 25.838C107.248 25.1933 108.426 24.8709 109.716 24.8709C111.016 24.8709 112.139 25.1895 113.084 25.8269C114.029 26.4643 114.763 27.3277 115.286 28.4098C115.808 29.4956 116.071 30.7073 116.071 32.0451C116.067 33.3569 115.812 34.5575 115.293 35.6433Z" fill="#4663A9"/>
<path id="Vector_5" d="M128.729 22.7624C127.677 23.3108 126.813 24.0445 126.135 24.9635V22.477H123.13V41.6132H126.135V30.3775C126.135 29.3696 126.376 28.458 126.861 27.6427C127.347 26.8275 127.999 26.1753 128.822 25.6898C129.644 25.2044 130.552 24.9635 131.549 24.9635C132.046 24.9635 132.565 25.0451 133.098 25.2118L134.303 22.2287C133.613 22.036 132.898 21.9434 132.161 21.9434C130.927 21.9397 129.781 22.2139 128.729 22.7624Z" fill="#4663A9"/>
<path id="Vector_6" d="M142.171 20.5146C143.102 19.5141 144.184 18.7248 145.414 18.1504C146.644 17.576 147.967 17.2907 149.383 17.2907C150.928 17.2907 152.396 17.6464 153.785 18.3616C155.175 19.0768 156.331 20.0403 157.25 21.2521L159.911 19.818C158.71 18.1467 157.202 16.8052 155.375 15.801C153.552 14.793 151.554 14.2891 149.387 14.2891C147.574 14.2891 145.873 14.6485 144.276 15.3711C142.683 16.0937 141.282 17.0869 140.078 18.3579C138.873 19.629 137.928 21.1038 137.246 22.7862C136.565 24.4723 136.224 26.2696 136.224 28.1817C136.224 30.0938 136.565 31.8948 137.246 33.5772C137.928 35.2596 138.873 36.7381 140.078 38.0055C141.282 39.2765 142.683 40.2697 144.276 40.9886C145.87 41.7075 147.574 42.0706 149.387 42.0706C151.554 42.0706 153.552 41.5704 155.375 40.5698C157.198 39.5693 158.71 38.2315 159.911 36.5603L157.25 35.1262C156.342 36.3009 155.205 37.2495 153.833 37.9758C152.462 38.7022 150.98 39.0653 149.383 39.0653C147.978 39.0653 146.666 38.7837 145.44 38.2241C144.217 37.6646 143.135 36.879 142.197 35.871C141.26 34.8631 140.53 33.7069 140.007 32.3988C139.485 31.0907 139.222 29.6862 139.222 28.178C139.222 26.6994 139.481 25.3024 139.996 23.9869C140.515 22.6713 141.241 21.5152 142.171 20.5146Z" fill="#4663A9"/>
<path id="Vector_7" d="M175.824 23.3033C174.375 22.3992 172.771 21.9434 171.01 21.9434C169.695 21.9434 168.457 22.2065 167.297 22.729C166.137 23.2515 165.118 23.9778 164.244 24.9005C163.369 25.8269 162.684 26.8979 162.187 28.117C161.69 29.3362 161.442 30.648 161.442 32.0488C161.442 33.8979 161.872 35.5877 162.735 37.1107C163.595 38.6338 164.751 39.8493 166.2 40.7572C167.649 41.6613 169.254 42.1171 171.014 42.1171C172.341 42.1171 173.582 41.854 174.735 41.3315C175.887 40.809 176.903 40.0864 177.777 39.16C178.652 38.2336 179.337 37.1663 179.834 35.9546C180.33 34.7428 180.579 33.4421 180.579 32.0525C180.579 30.1885 180.149 28.495 179.285 26.9609C178.426 25.4267 177.269 24.2075 175.824 23.3033ZM176.714 35.5507C176.139 36.6216 175.354 37.4813 174.36 38.1335C173.367 38.7857 172.248 39.1081 171.01 39.1081C169.825 39.1081 168.731 38.7968 167.727 38.1706C166.727 37.5443 165.93 36.6957 165.337 35.6248C164.744 34.5538 164.448 33.3606 164.448 32.0451C164.448 30.7703 164.733 29.5919 165.307 28.5135C165.882 27.4352 166.667 26.5718 167.66 25.9196C168.654 25.2674 169.773 24.945 171.01 24.945C172.237 24.945 173.345 25.2674 174.342 25.9122C175.339 26.5569 176.124 27.4167 176.706 28.495C177.288 29.5734 177.577 30.7555 177.577 32.0451C177.573 33.3087 177.288 34.476 176.714 35.5507Z" fill="#4663A9"/>
<path id="Vector_8" d="M199.559 25.7991C198.907 24.6503 198.022 23.7202 196.899 23.005C195.776 22.2898 194.457 21.9341 192.937 21.9341C191.548 21.9341 190.247 22.1972 189.035 22.7197C187.823 23.2422 186.756 23.9648 185.83 24.8912C184.903 25.8176 184.18 26.8886 183.658 28.1077C183.135 29.3269 182.872 30.6313 182.872 32.021C182.872 33.4106 183.132 34.7113 183.658 35.923C184.18 37.1348 184.903 38.202 185.83 39.1285C186.756 40.0549 187.823 40.7775 189.035 41.3C190.247 41.8225 191.548 42.0856 192.937 42.0856C194.457 42.0856 195.776 41.7299 196.899 41.0147C198.022 40.2995 198.907 39.3619 199.559 38.202V41.589H202.565V12.8848H199.559V25.7991ZM198.537 35.6192C198.021 36.7049 197.288 37.5684 196.347 38.2132C195.402 38.858 194.275 39.1803 192.959 39.1803C191.711 39.1803 190.547 38.8617 189.476 38.2243C188.405 37.5869 187.545 36.7272 186.9 35.6414C186.256 34.5556 185.933 33.3513 185.933 32.0247C185.933 30.698 186.252 29.4937 186.889 28.4079C187.527 27.3221 188.375 26.4587 189.435 25.8139C190.495 25.1691 191.666 24.8467 192.956 24.8467C194.256 24.8467 195.379 25.1654 196.324 25.8028C197.269 26.4402 198.003 27.3036 198.525 28.3857C199.048 29.4714 199.311 30.6832 199.311 32.021C199.311 33.3328 199.055 34.5334 198.537 35.6192Z" fill="#4663A9"/>
<path id="Vector_9" d="M224.556 28.7618C224.122 27.4018 223.474 26.2123 222.614 25.1932C221.754 24.1742 220.72 23.3738 219.523 22.8031C218.323 22.2287 217.011 21.9434 215.58 21.9434C214.265 21.9434 213.027 22.2065 211.867 22.729C210.707 23.2515 209.688 23.9778 208.814 24.9005C207.939 25.8269 207.253 26.8979 206.757 28.117C206.26 29.3362 206.012 30.648 206.012 32.0488C206.012 33.8979 206.442 35.5877 207.305 37.1107C208.165 38.6338 209.321 39.8493 210.77 40.7571C212.219 41.6613 213.824 42.1171 215.584 42.1171C217.496 42.1171 219.227 41.5798 220.768 40.5015C222.314 39.4231 223.466 38.0372 224.233 36.34L221.191 35.6322C220.59 36.7179 219.805 37.5703 218.838 38.1854C217.867 38.8043 216.785 39.1118 215.584 39.1118C214.472 39.1007 213.464 38.8339 212.553 38.3188C211.641 37.8037 210.892 37.0959 210.314 36.2029C209.733 35.3098 209.362 34.2944 209.195 33.1605H225.06C225.152 31.5856 224.986 30.1218 224.556 28.7618ZM209.11 30.7814C209.251 29.6327 209.621 28.5951 210.222 27.6612C210.822 26.7311 211.582 25.9937 212.508 25.4526C213.435 24.9116 214.457 24.6411 215.58 24.6411C216.703 24.6411 217.733 24.919 218.671 25.4749C219.608 26.0307 220.379 26.7719 220.987 27.7057C221.595 28.6358 221.939 29.666 222.028 30.7851H209.11V30.7814Z" fill="#4663A9"/>
</g>
</g>
<defs>
<clipPath id="clip0_456_5692">
<rect width="225.077" height="51.1719" fill="white"/>
</clipPath>
</defs>
</svg>
