<svg width="102" height="102" viewBox="0 0 102 102" fill="none" xmlns="http://www.w3.org/2000/svg">
<g id="ph:linux-logo-bold">
<path id="Vector" d="M92.2342 89.7998C91.743 90.1929 91.1791 90.4852 90.5747 90.66C89.9704 90.8347 89.3374 90.8884 88.7123 90.8181C88.0871 90.7478 87.482 90.5548 86.9315 90.2501C86.3811 89.9455 85.8962 89.5352 85.5046 89.0428C84.9428 88.3416 71.7187 71.4159 71.7187 38.25C71.7187 32.755 69.5358 27.4851 65.6503 23.5996C61.7648 19.7141 56.4949 17.5312 50.9999 17.5312C45.505 17.5312 40.2351 19.7141 36.3495 23.5996C32.464 27.4851 30.2812 32.755 30.2812 38.25C30.2812 71.4159 17.0491 88.3416 16.4873 89.0428C15.6974 90.0351 14.5456 90.6729 13.2855 90.816C12.0253 90.9591 10.7599 90.5957 9.76761 89.8058C8.77534 89.0159 8.13751 87.8642 7.99442 86.604C7.85133 85.3438 8.2147 84.0784 9.0046 83.0862C9.16397 82.875 20.7187 67.7583 20.7187 38.25C20.7187 30.2189 23.909 22.5168 29.5878 16.8379C35.2667 11.1591 42.9688 7.96875 50.9999 7.96875C59.031 7.96875 66.7331 11.1591 72.412 16.8379C78.0908 22.5168 81.2812 30.2189 81.2812 38.25C81.2812 67.8101 92.8757 82.9387 92.9952 83.0902C93.7824 84.0815 94.1444 85.3445 94.0017 86.6023C93.8591 87.8601 93.2234 89.01 92.2342 89.7998ZM41.4374 51C42.6983 51 43.9308 50.6261 44.9792 49.9256C46.0275 49.2251 46.8446 48.2295 47.3271 47.0646C47.8097 45.8997 47.9359 44.6179 47.6899 43.3813C47.4439 42.1447 46.8368 41.0088 45.9452 40.1172C45.0537 39.2256 43.9177 38.6185 42.6811 38.3725C41.4445 38.1265 40.1627 38.2528 38.9978 38.7353C37.8329 39.2178 36.8373 40.0349 36.1368 41.0832C35.4363 42.1316 35.0624 43.3641 35.0624 44.625C35.0624 46.3158 35.7341 47.9373 36.9296 49.1328C38.1252 50.3284 39.7467 51 41.4374 51ZM66.9374 44.625C66.9374 43.3641 66.5635 42.1316 65.863 41.0832C65.1625 40.0349 64.1669 39.2178 63.002 38.7353C61.8371 38.2528 60.5553 38.1265 59.3187 38.3725C58.0821 38.6185 56.9462 39.2256 56.0546 40.1172C55.163 41.0088 54.5559 42.1447 54.3099 43.3813C54.0639 44.6179 54.1902 45.8997 54.6727 47.0646C55.1552 48.2295 55.9723 49.2251 57.0206 49.9256C58.069 50.6261 59.3016 51 60.5624 51C62.2532 51 63.8747 50.3284 65.0702 49.1328C66.2658 47.9373 66.9374 46.3158 66.9374 44.625ZM37.9551 64.9453L49.1113 69.7266C49.7062 69.9814 50.3467 70.1128 50.9939 70.1128C51.6411 70.1128 52.2816 69.9814 52.8766 69.7266L64.0328 64.9453C65.1106 64.3921 65.9381 63.4505 66.3483 62.3106C66.7585 61.1708 66.7208 59.9177 66.2427 58.8046C65.7645 57.6915 64.8817 56.8014 63.7726 56.3142C62.6635 55.8269 61.4108 55.7789 60.2676 56.1797L50.9959 60.1641L41.7243 56.1797C40.5803 55.775 39.3253 55.8203 38.2135 56.3066C37.1018 56.7929 36.2165 57.6837 35.7371 58.7984C35.2578 59.9132 35.2202 61.1685 35.6321 62.3099C36.0439 63.4513 36.8744 64.3934 37.9551 64.9453ZM50.9999 76.5C45.2899 76.5086 39.7918 78.6631 35.5963 82.5363C34.6616 83.3939 34.1059 84.5876 34.0514 85.8548C33.9968 87.1221 34.4479 88.3592 35.3055 89.2938C36.163 90.2285 37.3567 90.7842 38.624 90.8388C39.8912 90.8933 41.1283 90.4422 42.063 89.5847C44.4875 87.321 47.6809 86.062 50.9979 86.062C54.3149 86.062 57.5083 87.321 59.9329 89.5847C60.3957 90.0093 60.9376 90.3386 61.5276 90.5538C62.1177 90.7689 62.7444 90.8658 63.3719 90.8388C63.9994 90.8118 64.6154 90.6614 65.1848 90.3964C65.7542 90.1313 66.2658 89.7566 66.6904 89.2938C67.115 88.831 67.4443 88.2891 67.6595 87.6991C67.8746 87.109 67.9715 86.4823 67.9445 85.8548C67.9175 85.2273 67.7671 84.6113 67.502 84.0419C67.237 83.4725 66.8623 82.9609 66.3995 82.5363C62.2054 78.6634 56.7086 76.5088 50.9999 76.5Z" fill="#3F2323" fill-opacity="0.15"/>
</g>
</svg>
