<svg width="16" height="16" viewBox="0 0 16 16" fill="none" xmlns="http://www.w3.org/2000/svg">
<g id="ant-design:star-filled">
<path id="Vector" d="M13.4881 5.90061L9.76171 5.35904L8.09592 1.98195C8.05042 1.88949 7.97557 1.81464 7.88311 1.76914C7.65122 1.65466 7.36943 1.75006 7.25348 1.98195L5.58769 5.35904L1.8613 5.90061C1.75856 5.91528 1.66463 5.96372 1.59271 6.0371C1.50577 6.12646 1.45786 6.24668 1.45951 6.37135C1.46117 6.49601 1.51224 6.61492 1.60152 6.70195L4.29761 9.33053L3.66065 13.0422C3.64571 13.1286 3.65527 13.2174 3.68823 13.2986C3.72119 13.3798 3.77624 13.4501 3.84714 13.5016C3.91804 13.5531 4.00195 13.5837 4.08935 13.5899C4.17675 13.5961 4.26415 13.5778 4.34164 13.5368L7.6747 11.7845L11.0078 13.5368C11.0988 13.5853 11.2044 13.6014 11.3057 13.5838C11.5611 13.5398 11.7328 13.2976 11.6888 13.0422L11.0518 9.33053L13.7479 6.70195C13.8213 6.63003 13.8697 6.5361 13.8844 6.43337C13.924 6.17653 13.7449 5.93877 13.4881 5.90061Z" fill="#929292"/>
</g>
</svg>
